<?xml version="1.0" ?><svg width="2050px" height="2050px" viewBox="0 0 2050 2050" data-name="Layer 3" id="Layer_3" xmlns="http://www.w3.org/2000/svg"><defs><style>.cls-1{fill:#4d4d4d;}.cls-2{fill:#fff;}</style></defs><title/><path class="cls-1" d="M1440.5,1544.7h-831c-98.1,0-178-79.8-178-178V587.4a82.2,82.2,0,0,1,82.1-82.1H861.7a122.2,122.2,0,0,1,80.5,30.3l99.8,87.7h398.5c98.1,0,178,79.9,178,178v565.4C1618.5,1464.9,1538.6,1544.7,1440.5,1544.7Z"/><path class="cls-2" d="M1405.1,1375.4H1228.6a45,45,0,0,1,0-90h176.5a45,45,0,0,1,0,90Z"/></svg>